<?xml version="1.0" standalone="no"?>
<!DOCTYPE svg PUBLIC "-//W3C//DTD SVG 20010904//EN"
 "http://www.w3.org/TR/2001/REC-SVG-20010904/DTD/svg10.dtd">
<svg version="1.0" xmlns="http://www.w3.org/2000/svg"
 width="40.000000pt" height="40.000000pt" viewBox="0 0 85.000000 56.000000"
 preserveAspectRatio="xMidYMid meet">
<metadata>

</metadata>
<g transform="translate(0.000000,56.000000) scale(0.100000,-0.100000)"
fill="#000000" stroke="none">
<path d="M188 369 c7 -9 10 -23 7 -31 -12 -31 49 -71 102 -66 55 5 52 -18 -3
-25 -25 -2 -51 -11 -55 -18 -9 -13 -2 -128 7 -138 10 -11 11 9 2 62 -6 32 -9
60 -7 61 2 2 24 6 48 9 32 4 40 2 32 -6 -6 -6 -11 -17 -11 -25 0 -10 3 -10 16
2 8 9 21 16 29 16 7 0 23 8 36 19 20 16 25 17 34 4 9 -12 16 -12 49 2 32 14
40 14 47 3 5 -8 2 -15 -9 -19 -13 -5 -8 -9 18 -16 29 -7 41 -20 70 -71 19 -34
38 -62 42 -62 4 0 -8 26 -27 58 -19 31 -35 59 -35 62 0 3 24 5 53 4 28 0 58 1
65 4 15 5 16 32 1 32 -19 0 -43 30 -32 41 6 6 14 4 23 -6 20 -25 32 -17 14 10
-9 14 -13 25 -8 25 4 0 -5 14 -21 30 -16 17 -38 29 -49 29 -20 -2 -20 -2 0 -6
23 -4 65 -43 47 -43 -6 0 -13 6 -16 14 -8 21 -76 33 -152 27 l-30 -3 30 -10
c55 -18 95 -39 95 -48 0 -12 -23 -13 -34 -2 -4 4 -26 7 -49 8 -23 0 -58 2 -77
4 l-35 2 29 7 c17 3 28 10 25 16 -2 5 -10 8 -18 7 -8 -2 -10 1 -6 9 6 9 1 10
-20 5 -18 -5 -33 -2 -44 8 -11 10 -21 12 -31 5 -12 -7 -13 -11 -2 -18 11 -6 9
-10 -7 -14 -15 -3 -25 1 -32 15 -9 16 -17 19 -46 13 -26 -5 -40 -2 -56 12 -16
13 -18 14 -9 2z"/>
</g>
</svg>
