<?xml version="1.0" standalone="no"?>
<!DOCTYPE svg PUBLIC "-//W3C//DTD SVG 20010904//EN"
 "http://www.w3.org/TR/2001/REC-SVG-20010904/DTD/svg10.dtd">
<svg version="1.0" xmlns="http://www.w3.org/2000/svg"
 width="80.000000pt" height="40.000000pt" viewBox="0 0 80.000000 40.000000"
 preserveAspectRatio="xMidYMid meet">
<metadata>
</metadata>
<g transform="translate(0.000000,40.000000) scale(0.100000,-0.100000)"
fill="#000000" stroke="none">
<path d="M62 378 c-104 -51 -73 -175 54 -215 30 -9 54 -20 54 -24 0 -21 -16
-42 -39 -51 -18 -7 -22 -12 -11 -16 8 -3 27 9 45 30 l30 34 53 -16 c55 -17
110 -68 97 -90 -3 -5 -1 -10 4 -10 16 0 13 23 -4 46 -8 10 -15 23 -15 28 0 16
52 -5 77 -32 l25 -27 -16 27 c-9 15 -16 29 -16 31 0 6 85 3 90 -4 5 -5 51 -30
141 -74 26 -13 50 -16 88 -13 59 6 88 23 39 23 -43 0 -46 20 -6 35 l33 13 -68
10 c-51 7 -74 6 -92 -3 -29 -16 -41 -8 -61 38 -10 25 -12 42 -6 53 6 8 8 27 5
41 -4 22 -1 27 24 32 16 4 56 5 88 2 43 -4 55 -2 45 5 -12 8 -10 10 9 5 39 -8
10 10 -37 23 -55 16 -128 5 -156 -23 -11 -11 -25 -20 -29 -18 -4 1 -10 -5 -13
-13 -4 -8 -17 -15 -31 -15 -13 0 -22 4 -19 9 3 4 -6 13 -20 20 -33 14 -37 14
-31 -3 8 -20 -24 -29 -57 -16 -33 12 -39 13 -32 1 6 -9 -95 -24 -155 -23 -72
2 -125 54 -113 110 5 19 19 33 51 50 45 22 45 22 40 2 -6 -24 11 -23 27 3 22
34 -35 43 -92 15z"/>
</g>
</svg>
